[img]http://img402.imageshack.us/img402/9920/longestyard.jpg[/img]

[b][size=200][color=black]PLOT[/color][/size][/b]

[code]Prison inmates form a football team to challenge 
the prison guards.[/code]

[b][size=200][color=black]IMDB[/color][/size][/b]

[code]http://www.imdb.com/title/tt0398165/[/code]

[b][size=200][color=black]MOVIE INFO[/color][/size][/b]

[code]The Longest Yard [2005] DVDRip x264 AAC-V3nom

Format                                   : MPEG-4
Format profile                           : Base Media / Version 2
Codec ID                                 : mp42
File size                                : 348 MiB
Duration                                 : 1h 48mn
Overall bit rate mode                    : Variable
Overall bit rate                         : 447 Kbps
Encoded date                             : UTC 2012-12-21 18:28:11
Tagged date                              : UTC 2012-12-21 18:54:16

Video
ID                                       : 1
Format                                   : AVC
Format/Info                              : Advanced Video Codec
Format profile                           : Main@L2.1
Format settings, CABAC                   : Yes
Format settings, ReFrames                : 4 frames
Codec ID                                 : avc1
Codec ID/Info                            : Advanced Video Coding
Duration                                 : 1h 48mn
Bit rate mode                            : Variable
Bit rate                                 : 318 Kbps
Width                                    : 548 pixels
Height                                   : 226 pixels
Display aspect ratio                     : 2.40:1
Frame rate mode                          : Constant
Frame rate                               : 25.000 fps
Color space                              : YUV
Chroma subsampling                       : 4:2:0
Bit depth                                : 8 bits
Scan type                                : Progressive
Bits/(Pixel*Frame)                       : 0.103
Stream size                              : 245 MiB (70%)
Writing library                          : x264 core 112

Audio
ID                                       : 2
Format                                   : AAC
Format/Info                              : Advanced Audio Codec
Format profile                           : LC
Codec ID                                 : 40
Duration                                 : 1h 48mn
Bit rate mode                            : Variable
Bit rate                                 : 128 Kbps
Maximum bit rate                         : 236 Kbps
Channel(s)                               : 2 channels
Channel positions                        : Front: L R
Sampling rate                            : 48.0 KHz
Compression mode                         : Lossy
Delay relative to video                  : 80ms
Stream size                              : 99.6 MiB (29%)
Encoded date                             : UTC 2012-12-21 18:28:11
Tagged date                              : UTC 2012-12-21 18:54:12[/code]

[b][size=200][color=black]SCREENSHOTS[/color][/size][/b]

[img]http://img839.imageshack.us/img839/5158/thelongestyard2005dvdri.jpg[/img]

[img]http://kastatic.com/i2/users/133df62bbf28e62494bb17fe11078f1a.gif[/img][img]http://kastatic.com/i2/users/133df62bbf28e62494bb17fe11078f1a.gif[/img]